<?xml version="1.0" encoding="UTF-8"?>
<svg width="234px" height="64px" viewBox="0 0 234 64" version="1.1" xmlns="http://www.w3.org/2000/svg" xmlns:xlink="http://www.w3.org/1999/xlink">
    <title>编组 17</title>
    <defs>
        <linearGradient x1="47.8957331%" y1="53.4229711%" x2="113.859098%" y2="-38.6074336%" id="linearGradient-1">
            <stop stop-color="#25E3D5" offset="0%"></stop>
            <stop stop-color="#64DAFF" offset="100%"></stop>
        </linearGradient>
        <linearGradient x1="30.049493%" y1="32.0222793%" x2="77.5609892%" y2="70.865467%" id="linearGradient-2">
            <stop stop-color="#25D8D5" stop-opacity="0.8" offset="0%"></stop>
            <stop stop-color="#64DAFF" stop-opacity="0" offset="78%"></stop>
        </linearGradient>
        <linearGradient x1="24.4881475%" y1="85.0188089%" x2="89.6250627%" y2="-7.60873715%" id="linearGradient-3">
            <stop stop-color="#25E3D5" offset="0%"></stop>
            <stop stop-color="#64DAFF" offset="100%"></stop>
        </linearGradient>
        <linearGradient x1="69.9627909%" y1="67.9808022%" x2="22.429191%" y2="29.1309565%" id="linearGradient-4">
            <stop stop-color="#25D8D5" stop-opacity="0.8" offset="0%"></stop>
            <stop stop-color="#64DAFF" stop-opacity="0" offset="78%"></stop>
        </linearGradient>
    </defs>
    <g id="IEO" stroke="none" stroke-width="1" fill="none" fill-rule="evenodd">
        <g transform="translate(-414, -2048)" fill-rule="nonzero" id="编组-26">
            <g transform="translate(0, 1978)">
                <g id="编组-17" transform="translate(414, 70)">
                    <path d="M15.2630675,46.4186835 L38.6837246,10.0865622 C40.3378993,7.49037712 42.9543716,5.65638116 45.9590903,4.98695107 C43.703159,1.78874202 40.0053589,-0.0792843365 36.0924233,0.0025837411 C32.1794877,0.0844518187 28.5630567,2.10550959 26.4428696,5.39527761 L0,46.4186835 L15.2630675,46.4186835 Z" id="路径" fill="url(#linearGradient-1)"></path>
                    <path d="M46.2362754,5.39527761 L60.7035533,27.8383353 L53.1271585,39.7602783 L36.3410628,13.7108329 L38.6837246,10.0776207 C40.3372025,7.4820767 42.9524893,5.64816046 45.9561098,4.97800961 C46.0485048,5.12107293 46.1468609,5.25519478 46.2362754,5.39527761 Z" id="路径" fill="url(#linearGradient-2)"></path>
                    <path d="M69.1055426,16.932738 L45.6848856,53.2648593 C44.0307109,55.8610443 41.4142385,57.6950403 38.4095199,58.3644704 C40.6654512,61.5626794 44.3632513,63.4307058 48.2761868,63.3488377 C52.1891224,63.2669696 55.8055534,61.2459118 57.9257406,57.9561438 L84.3686101,16.932738 L69.1055426,16.932738 Z" id="路径" fill="url(#linearGradient-3)"></path>
                    <path d="M38.1293542,57.9561438 L23.6620764,35.5130861 L31.2414516,23.5911431 L48.0275474,49.6316471 L45.6848856,53.2678397 C44.0314076,55.8633838 41.4161208,57.6973 38.4125004,58.3674509 C38.3171248,58.2303485 38.2187688,58.0962267 38.1293542,57.9561438 Z" id="路径" fill="url(#linearGradient-4)"></path>
                    <path d="M112.686205,11.7198684 L130.798617,52.1114113 L126.625937,52.1114113 L120.518922,38.8631521 L103.765611,38.8631521 L97.7092644,52.1114113 L93.3845795,52.1114113 L111.714567,11.7198684 L112.686205,11.7198684 Z M112.200386,20.3185698 L105.547942,34.9229499 L118.796201,34.9229499 L112.200386,20.3185698 Z" id="形状" fill="#FFFFFF"></path>
                    <polygon id="路径" fill="#FFFFFF" points="136.258867 13.2876039 140.151381 13.2876039 140.151381 52.1114113 136.258867 52.1114113"></polygon>
                    <path d="M148.696434,52.1114113 L148.696434,12.3159655 L152.317724,12.3159655 L152.317724,28.315213 C155.453195,24.5399311 159.292061,22.6522901 163.834321,22.6522901 C167.797484,22.5926402 171.599803,24.2175626 174.295826,27.1230187 C177.114701,29.9752571 178.665102,33.8431991 178.596667,37.8527674 C178.657724,41.8854026 177.076127,45.7694617 174.215353,48.612321 C171.298451,51.6047287 167.802341,53.1009325 163.727024,53.1009325 C159.184763,53.1009325 155.381664,51.0145925 152.317724,46.8419125 L152.317724,52.1412161 L148.696434,52.1114113 Z M152.103127,37.5547189 C152.103127,40.9047848 153.201935,43.7342593 155.399547,46.0431423 C157.501065,48.261304 160.42523,49.5132832 163.480802,49.5031875 C166.536374,49.4929691 169.452151,48.2215774 171.538877,45.9894935 C173.698554,43.7911194 174.895238,40.8240709 174.865099,37.7424895 C174.897185,34.6794691 173.73266,31.7248479 171.61935,29.5074073 C169.558334,27.2091224 166.595711,25.9265171 163.509448,25.9963951 C160.26668,25.9963951 157.554438,27.0952009 155.372722,29.2928124 C153.191007,31.4904239 152.101142,34.2443927 152.103127,37.5547189 Z" id="形状" fill="#FFFFFF"></path>
                    <path d="M183.946639,37.9451625 C183.875533,33.8974639 185.446386,29.9934482 188.301129,27.1230187 C191.081047,24.2554672 194.904401,22.6369185 198.898246,22.6369185 C202.892091,22.6369185 206.715445,24.2554672 209.495363,27.1230187 C212.339273,29.9760024 213.908726,33.8577102 213.846872,37.8855528 C213.916097,41.8946903 212.366796,45.7625716 209.549012,48.6153015 C206.683771,51.5957872 203.142954,53.0860301 198.92656,53.0860301 C194.710167,53.0860301 191.159415,51.5957872 188.274304,48.6153015 C185.449271,45.7894418 183.8882,41.9405202 183.946639,37.9451625 L183.946639,37.9451625 Z M210.118284,37.9988112 C210.154375,34.9161079 208.956804,31.9468602 206.792062,29.7518072 C204.574581,27.4270283 201.942812,26.2646388 198.896756,26.2646388 C195.850699,26.2646388 193.228865,27.4270283 191.031254,29.7518072 C188.873759,31.9713812 187.686848,34.9574208 187.731856,38.05246 C187.731856,41.2614496 188.795889,43.9826331 190.923956,46.2160105 C192.962821,48.4145818 195.845387,49.6350887 198.843107,49.5690569 C201.866897,49.6254969 204.773646,48.4010898 206.845711,46.1981275 C209.001442,44.020218 210.184054,41.0626145 210.124245,37.9988112 L210.118284,37.9988112 Z" id="形状" fill="#FFFFFF"></path>
                    <path d="M227.688248,47.569151 C227.688248,48.5407893 227.816409,49.1190036 228.06677,49.2978327 C228.31713,49.4766619 228.960915,49.5690569 230.016007,49.5690569 L232.230508,49.5690569 L232.230508,52.7045279 C231.050039,52.9239836 229.85418,53.0505453 228.653925,53.0830496 C227.032541,53.0830496 225.840347,52.6856515 225.077342,51.8908553 C224.314338,51.0960591 223.935816,49.8522031 223.941777,48.1592872 L223.941777,26.5269216 L218.874952,26.5269216 L218.874952,23.400392 L223.95966,23.400392 L223.95966,12.3159655 L227.688248,12.3159655 L227.688248,23.400392 L233.53,23.400392 L233.53,26.5269216 L227.688248,26.5269216 L227.688248,47.569151 Z" id="路径" fill="#FFFFFF"></path>
                </g>
            </g>
        </g>
    </g>
</svg>