<?xml version="1.0" encoding="UTF-8"?>
<svg width="118px" height="32px" viewBox="0 0 118 32" version="1.1" xmlns="http://www.w3.org/2000/svg" xmlns:xlink="http://www.w3.org/1999/xlink">
    <title>编组 37</title>
    <defs>
        <linearGradient x1="47.8957331%" y1="53.4229711%" x2="113.859098%" y2="-38.6074336%" id="linearGradient-1">
            <stop stop-color="#25E3D5" offset="0%"></stop>
            <stop stop-color="#64DAFF" offset="100%"></stop>
        </linearGradient>
        <linearGradient x1="30.049493%" y1="32.0222793%" x2="77.5609892%" y2="70.865467%" id="linearGradient-2">
            <stop stop-color="#25D8D5" stop-opacity="0.8" offset="0%"></stop>
            <stop stop-color="#64DAFF" stop-opacity="0" offset="78%"></stop>
        </linearGradient>
        <linearGradient x1="24.4881475%" y1="85.0188089%" x2="89.6250627%" y2="-7.60873715%" id="linearGradient-3">
            <stop stop-color="#25E3D5" offset="0%"></stop>
            <stop stop-color="#64DAFF" offset="100%"></stop>
        </linearGradient>
        <linearGradient x1="69.9627909%" y1="67.9808022%" x2="22.429191%" y2="29.1309565%" id="linearGradient-4">
            <stop stop-color="#25D8D5" stop-opacity="0.8" offset="0%"></stop>
            <stop stop-color="#64DAFF" stop-opacity="0" offset="78%"></stop>
        </linearGradient>
    </defs>
    <g id="IEO" stroke="none" stroke-width="1" fill="none" fill-rule="evenodd">
        <g transform="translate(-50, -14)" id="编组-38">
            <g id="编组-37" transform="translate(50, 14)">
                <rect id="矩形" x="1.13686838e-13" y="5.68434189e-14" width="118" height="32"></rect>
                <g id="资源-2备份" transform="translate(0, 0)" fill-rule="nonzero">
                    <path d="M7.59302342,23.0922225 L19.2442591,5.01783162 C20.0671728,3.72628954 21.3688074,2.81391893 22.8635855,2.48089293 C21.7413118,0.889857826 19.9017417,-0.0394421255 17.9551466,0.00128535149 C16.0085516,0.0420128285 14.2094607,1.04744237 13.1547166,2.68402595 L0,23.0922225 L7.59302342,23.0922225 Z" id="路径" fill="url(#linearGradient-1)"></path>
                    <path d="M23.0014787,2.68402595 L30.1986151,13.8489286 L26.4295338,19.7798198 L18.078839,6.82082254 L19.2442591,5.01338346 C20.0668262,3.72216028 21.367871,2.80982932 22.8621027,2.47644476 C22.9080672,2.54761545 22.956997,2.61433798 23.0014787,2.68402595 Z" id="路径" fill="url(#linearGradient-2)"></path>
                    <path d="M34.3784107,8.42364588 L22.727175,26.4980367 C21.9042613,27.7895788 20.6026267,28.7019494 19.1078486,29.0349754 C20.2301223,30.6260105 22.0696924,31.5553105 24.0162875,31.514583 C25.9628825,31.4738555 27.7619734,30.468426 28.8167175,28.8318424 L41.9714341,8.42364588 L34.3784107,8.42364588 Z" id="路径" fill="url(#linearGradient-3)"></path>
                    <path d="M18.9684727,28.8318424 L11.7713363,17.6669398 L15.5419003,11.7360486 L23.8925951,24.6905976 L22.727175,26.4995194 C21.9046079,27.7907426 20.6035632,28.7030736 19.1093314,29.0364581 C19.0618842,28.9682529 19.0129544,28.9015304 18.9684727,28.8318424 Z" id="路径" fill="url(#linearGradient-4)"></path>
                    <path d="M56.0587834,5.83036372 L65.0692898,25.924223 L62.9934779,25.924223 L59.9553789,19.3335202 L51.620994,19.3335202 L48.6081013,25.924223 L46.4566706,25.924223 L55.5754157,5.83036372 L56.0587834,5.83036372 Z M55.8170995,10.108019 L52.5076623,17.3733607 L59.0983651,17.3733607 L55.8170995,10.108019 Z" id="形状" fill="#FFFFFF"></path>
                    <polygon id="路径" fill="#FFFFFF" points="67.7856379 6.6102759 69.7220739 6.6102759 69.7220739 25.924223 67.7856379 25.924223"></polygon>
                    <path d="M73.9730401,25.924223 L73.9730401,6.12690827 L75.7745483,6.12690827 L75.7745483,14.0861642 C77.3343727,12.2080487 79.2441197,11.2689909 81.5037892,11.2689909 C83.4753712,11.2393165 85.3669368,12.0476778 86.7081462,13.4930751 C88.1104715,14.9119978 88.8817597,16.8362095 88.8477152,18.8308772 C88.8780896,20.83702 88.0912815,22.7692496 86.6681127,24.1835064 C85.2170213,25.6721601 83.4777875,26.416487 81.4504112,26.416487 C79.1907417,26.416487 77.2987874,25.378581 75.7745483,23.3027691 L75.7745483,25.9390502 L73.9730401,25.924223 Z M75.6677909,18.6826049 C75.6677909,20.3491853 76.2144228,21.7567835 77.3076837,22.9053994 C78.3531408,24.0088836 79.8078452,24.6317143 81.3279217,24.6266919 C82.8479981,24.6216085 84.2985298,23.9891206 85.3366276,22.8787104 C86.4110169,21.7850701 87.0063398,20.309032 86.9913463,18.7760164 C87.0073085,17.2522346 86.4279842,15.7823788 85.3766611,14.6792533 C84.3513531,13.5359097 82.877517,12.8978432 81.3421724,12.9326059 C79.72897,12.9326059 78.3796923,13.4792364 77.2943392,14.5724973 C76.2089861,15.6657582 75.6668038,17.0357941 75.6677909,18.6826049 Z" id="形状" fill="#FFFFFF"></path>
                    <path d="M91.5092026,18.8768416 C91.4738292,16.863205 92.2552922,14.9210475 93.6754606,13.4930751 C95.0584056,12.0665345 96.960436,11.2613439 98.9472815,11.2613439 C100.934127,11.2613439 102.836157,12.0665345 104.219102,13.4930751 C105.633882,14.9123686 106.414648,16.8434285 106.383878,18.8471871 C106.418316,20.8416404 105.647574,22.765822 104.245791,24.1849892 C102.820401,25.667712 101.058926,26.4090734 98.9613674,26.4090734 C96.8638089,26.4090734 95.0973918,25.667712 93.6621161,24.1849892 C92.2567271,22.7791893 91.4801303,20.8644397 91.5092026,18.8768416 L91.5092026,18.8768416 Z M104.528991,18.9035306 C104.546946,17.3699569 103.951182,15.8928248 102.874273,14.8008366 C101.771127,13.6443128 100.461883,13.0660509 98.9465401,13.0660509 C97.4311975,13.0660509 96.1268956,13.6443128 95.0336347,14.8008366 C93.9603308,15.9050234 93.3698703,17.3905091 93.3922606,18.9302196 C93.3922606,20.5266178 93.9215926,21.8803437 94.9802567,22.9913973 C95.9945447,24.0851358 97.4285548,24.6923098 98.9198511,24.6594605 C100.424117,24.6875381 101.870158,24.0784238 102.900962,22.982501 C103.973388,21.8990413 104.56171,20.4277019 104.531957,18.9035306 L104.528991,18.9035306 Z" id="形状" fill="#FFFFFF"></path>
                    <path d="M113.269642,23.6645535 C113.269642,24.1479211 113.333399,24.4355693 113.457948,24.5245327 C113.582497,24.6134961 113.902765,24.6594605 114.427649,24.6594605 L115.529312,24.6594605 L115.529312,26.2192848 C114.942056,26.328459 114.347144,26.3914205 113.750045,26.4075906 C112.943443,26.4075906 112.350354,26.2098943 111.970777,25.8145015 C111.5912,25.4191088 111.402894,24.8003191 111.40586,23.9581326 L111.40586,13.1965306 L108.885231,13.1965306 L108.885231,11.6411543 L111.414756,11.6411543 L111.414756,6.12690827 L113.269642,6.12690827 L113.269642,11.6411543 L116.175779,11.6411543 L116.175779,13.1965306 L113.269642,13.1965306 L113.269642,23.6645535 Z" id="路径" fill="#FFFFFF"></path>
                </g>
            </g>
        </g>
    </g>
</svg>