<?xml version="1.0" encoding="UTF-8"?>
<svg width="30px" height="30px" viewBox="0 0 30 30" version="1.1" xmlns="http://www.w3.org/2000/svg" xmlns:xlink="http://www.w3.org/1999/xlink">
    <title>编组 24</title>
    <g id="IEO" stroke="none" stroke-width="1" fill="none" fill-rule="evenodd">
        <g transform="translate(-1407, -2241)" id="编组-26">
            <g transform="translate(0, 1978)">
                <g id="编组-24" transform="translate(1407, 263)">
                    <circle id="椭圆形备份" stroke="#FFFFFF" cx="15" cy="15" r="14.5"></circle>
                    <path d="M19.4581461,21.3961273 L21.968528,9.56146972 C22.0709925,9.06053184 22.0112215,8.70190585 21.789215,8.48559176 C21.5672084,8.26927767 21.2740459,8.22943034 20.9097274,8.36604976 L6.15482967,14.0528333 C5.82466606,14.1780677 5.59981326,14.3203796 5.48027129,14.479769 C5.36072931,14.6391583 5.34649812,14.7900089 5.4375777,14.9323208 C5.52865728,15.0746327 5.71081652,15.185636 5.98405542,15.2653307 L9.75816699,16.4436732 L18.5188875,10.927664 C18.7579715,10.7682746 18.9401307,10.7341198 19.0653652,10.8251994 C19.1450599,10.8821241 19.12229,10.9675113 18.9970555,11.0813608 L11.9099229,17.4853963 L11.6366841,21.3790499 C11.898538,21.3790499 12.1546994,21.2538154 12.4051683,21.0033465 L14.2495305,19.2272939 L18.0748744,22.0450696 C18.8035113,22.4549278 19.2646019,22.2386138 19.4581461,21.3961273 L19.4581461,21.3961273 Z" id="路径" fill="#FFFFFF"></path>
                </g>
            </g>
        </g>
    </g>
</svg>