<?xml version="1.0" encoding="UTF-8"?>
<svg width="28px" height="28px" viewBox="0 0 28 28" version="1.1" xmlns="http://www.w3.org/2000/svg" xmlns:xlink="http://www.w3.org/1999/xlink">
    <title>编组 21</title>
    <g id="IEO" stroke="none" stroke-width="1" fill="none" fill-rule="evenodd">
        <g transform="translate(-1725, -16)" id="编组-38">
            <g id="编组-31" transform="translate(1719, 10)">
                <g id="编组-21" transform="translate(6, 6)">
                    <rect id="矩形" x="0" y="0" width="28" height="28"></rect>
                    <g id="编组" transform="translate(4.2712, 4.2712)" fill="#39E0E2" fill-rule="nonzero">
                        <path d="M19.7423729,17.0812784 C19.7423729,17.3566859 19.6952637,17.6139745 19.6010453,17.8531443 C19.5068269,18.092314 19.372747,18.3024934 19.1988053,18.4836826 C19.0248637,18.6648718 18.8219319,18.8061993 18.5900097,18.9076653 C18.3580876,19.0091312 18.1044227,19.0598642 17.8290152,19.0598642 L2.04381393,19.0598642 C1.76840638,19.0598642 1.50749396,19.0091312 1.26107668,18.9076653 C1.0146594,18.8061993 0.797232385,18.6648718 0.60879564,18.4836826 C0.420358894,18.3024934 0.271783768,18.092314 0.163070261,17.8531443 C0.0543567535,17.6139745 0,17.3566859 0,17.0812784 L0,6.23167035 C0,5.68085525 0.192060529,5.21338717 0.576181587,4.82926611 C0.960302646,4.44514505 1.42777073,4.25308452 1.97858583,4.25308452 L17.7637871,4.25308452 C18.3146022,4.25308452 18.7820702,4.44514505 19.1661913,4.82926611 C19.5503124,5.21338717 19.7423729,5.68085525 19.7423729,6.23167035 L19.7423729,9.18867774 L14.8067797,9.18867774 C14.2559646,9.18867774 13.7884965,9.37711449 13.4043754,9.75398798 C13.0202544,10.1308615 12.8281938,10.5947058 12.8281938,11.1455209 C12.842689,11.5223944 12.9224122,11.8557824 13.0673635,12.1456851 C13.1833246,12.3921024 13.3753852,12.616777 13.6435451,12.8197089 C13.9117051,13.0226408 14.29945,13.1241067 14.8067797,13.1241067 L19.7423729,13.1241067 L19.7423729,17.0812784 L19.7423729,17.0812784 Z M16.7853655,3.25292026 L6.91417905,3.25292026 C7.6969163,2.8470565 8.43616815,2.45568787 9.13193459,2.07881438 C9.74073023,1.75992142 10.3422783,1.44102847 10.9365788,1.12213552 C11.5308793,0.803242563 11.9947236,0.55682528 12.3281117,0.382883669 C12.8354414,0.107476118 13.2884143,-0.0193563074 13.6870305,0.00238639406 C14.0856467,0.0241290955 14.4226586,0.0929809833 14.6980662,0.208942057 C15.0169591,0.368388534 15.2923667,0.578567981 15.5242888,0.839480398 L16.7853655,3.25292026 Z M13.8283581,11.1455209 C13.8283581,10.8701133 13.9225765,10.6381912 14.1110132,10.4497544 C14.29945,10.2613177 14.5313721,10.1670993 14.8067797,10.1670993 C15.0821872,10.1670993 15.3141094,10.2613177 15.5025461,10.4497544 C15.6909829,10.6381912 15.7852012,10.8701133 15.7852012,11.1455209 C15.7852012,11.4209284 15.6909829,11.6564744 15.5025461,11.8521587 C15.3141094,12.047843 15.0821872,12.1456851 14.8067797,12.1456851 C14.5313721,12.1456851 14.29945,12.047843 14.1110132,11.8521587 C13.9225765,11.6564744 13.8283581,11.4209284 13.8283581,11.1455209 Z" id="形状"></path>
                    </g>
                </g>
            </g>
        </g>
    </g>
</svg>